<?xml version="1.0" standalone="no"?>
<!DOCTYPE svg PUBLIC "-//W3C//DTD SVG 20010904//EN"
 "http://www.w3.org/TR/2001/REC-SVG-20010904/DTD/svg10.dtd">
<svg version="1.0" xmlns="http://www.w3.org/2000/svg"
 width="512.000000pt" height="512.000000pt" viewBox="0 0 512.000000 512.000000"
 preserveAspectRatio="xMidYMid meet">
<metadata>
Created by potrace 1.14, written by Peter Selinger 2001-2017
</metadata>
<g transform="translate(0.000000,512.000000) scale(0.100000,-0.100000)"
fill="#000000" stroke="none">
<path d="M2157 4364 c-1 -1 -27 -5 -57 -9 -98 -11 -274 -57 -330 -85 -83 -42
-146 -118 -169 -206 -10 -36 -17 -43 -63 -65 -29 -13 -54 -27 -56 -31 -2 -5
-9 -8 -16 -8 -19 0 -175 -107 -261 -180 -305 -257 -514 -575 -720 -1095 -15
-38 -31 -79 -36 -90 -13 -28 -57 -169 -63 -197 -2 -13 -11 -52 -20 -88 -64
-279 -46 -736 36 -887 17 -32 49 -82 71 -111 39 -52 150 -157 185 -176 9 -5
19 -12 22 -16 3 -4 25 -17 50 -31 25 -13 47 -27 50 -31 9 -12 157 -77 265
-118 213 -79 486 -145 695 -166 36 -3 79 -8 95 -10 59 -8 418 -10 473 -3 32 4
80 10 107 13 47 6 63 9 125 21 14 3 48 10 75 16 63 12 195 51 305 90 73 26
234 105 265 131 5 5 32 25 59 45 47 34 50 35 94 25 121 -27 229 7 319 100 156
164 250 299 343 492 144 299 200 629 164 960 -4 39 -8 73 -9 76 -1 3 -5 30 -9
60 -11 70 -61 250 -85 304 -38 85 -40 79 53 125 133 65 241 63 401 -6 145 -63
188 -54 234 47 39 86 51 150 47 251 -5 136 -61 264 -139 317 -80 55 -125 66
-245 58 -219 -13 -421 -84 -590 -207 l-65 -48 -21 27 c-128 166 -352 359 -541
465 -203 113 -464 201 -690 232 -47 7 -342 14 -348 9z"/>
</g>
</svg>
