<?xml version="1.0" encoding="UTF-8"?>
<!DOCTYPE svg PUBLIC "-//W3C//DTD SVG 1.1//EN" "http://www.w3.org/Graphics/SVG/1.1/DTD/svg11.dtd">
<svg xmlns="http://www.w3.org/2000/svg" version="1.1" width="512px" height="512px" style="shape-rendering:geometricPrecision; text-rendering:geometricPrecision; image-rendering:optimizeQuality; fill-rule:evenodd; clip-rule:evenodd" xmlns:xlink="http://www.w3.org/1999/xlink">
<g><path style="opacity:0.955" fill="#020100" d="M 214.5,74.5 C 280.516,72.0429 334.183,96.3763 375.5,147.5C 396.024,131.045 419.524,122.378 446,121.5C 461.498,122.346 471.831,130.012 477,144.5C 481.651,160.9 479.984,176.566 472,191.5C 468.319,194.36 464.152,195.193 459.5,194C 453.421,191.863 447.421,189.529 441.5,187C 427.367,183.292 414.7,185.959 403.5,195C 428,259.492 420.167,319.659 380,375.5C 373.833,382.333 367.667,389.167 361.5,396C 351.597,402.733 340.93,404.233 329.5,400.5C 310.619,415.416 289.285,425.249 265.5,430C 204.642,442.351 145.642,436.351 88.5,412C 65.9466,402.446 48.78,386.946 37,365.5C 28.8079,329.827 30.1412,294.494 41,259.5C 53.1944,222.77 70.8611,189.104 94,158.5C 111.705,137.45 132.872,120.95 157.5,109C 160.658,94.5098 169.325,85.1765 183.5,81C 193.85,78.2312 204.184,76.0645 214.5,74.5 Z"/></g>
<g><path style="opacity:1" fill="#4f2c15" d="M 378.5,169.5 C 381.807,216.358 367.474,256.858 335.5,291C 333.298,292.022 330.965,292.522 328.5,292.5C 324.76,292.124 321.094,291.457 317.5,290.5C 291.689,232.172 257.856,179.172 216,131.5C 207.641,122.135 197.474,115.635 185.5,112C 179.386,111.027 173.553,111.86 168,114.5C 168.013,102.157 173.846,93.9901 185.5,90C 257.011,74.837 316.844,94.6704 365,149.5C 370.253,155.677 374.753,162.344 378.5,169.5 Z"/></g>
<g><path style="opacity:1" fill="#9f592b" d="M 312.5,301.5 C 310.095,308.977 306.595,315.977 302,322.5C 295.422,331.135 288.255,339.302 280.5,347C 218.387,391.735 150.053,405.068 75.5,387C 68.8346,384.334 62.5013,381.167 56.5,377.5C 51.717,372.537 47.8837,366.87 45,360.5C 38.3581,325.182 40.6914,290.515 52,256.5C 63.2466,224.333 78.9133,194.666 99,167.5C 114.823,147.52 133.99,131.687 156.5,120C 157.167,119.833 157.833,119.667 158.5,119.5C 162.84,123.717 167.84,124.551 173.5,122C 185.187,120.118 195.187,123.451 203.5,132C 249.606,181.995 285.94,238.495 312.5,301.5 Z"/></g>
<g><path style="opacity:1" fill="#4f2c15" d="M 469.5,157.5 C 468.26,161.445 465.426,163.112 461,162.5C 453.17,161.417 445.337,160.417 437.5,159.5C 432.462,159.627 427.462,160.127 422.5,161C 412.145,164.345 402.145,168.512 392.5,173.5C 388.69,167.899 384.856,162.232 381,156.5C 380.333,155.833 380.333,155.167 381,154.5C 401.418,138.583 424.585,131.083 450.5,132C 457.945,132.781 463.112,136.614 466,143.5C 468.109,147.936 469.276,152.603 469.5,157.5 Z"/></g>
<g><path style="opacity:1" fill="#361e0f" d="M 469.5,157.5 C 471.092,165.581 470.259,173.581 467,181.5C 466.477,183.223 465.477,184.556 464,185.5C 456.167,182.667 448.333,179.833 440.5,177C 431.365,174.701 422.365,175.034 413.5,178C 408.674,180.246 404.008,182.746 399.5,185.5C 396.654,181.809 394.32,177.809 392.5,173.5C 402.145,168.512 412.145,164.345 422.5,161C 427.462,160.127 432.462,159.627 437.5,159.5C 445.337,160.417 453.17,161.417 461,162.5C 465.426,163.112 468.26,161.445 469.5,157.5 Z"/></g>
<g><path style="opacity:1" fill="#371f0f" d="M 378.5,169.5 C 415.759,227.865 418.259,287.865 386,349.5C 377.398,363.516 367.232,376.349 355.5,388C 346.629,394.801 337.629,395.134 328.5,389C 333.947,383.27 337.114,376.437 338,368.5C 338.955,355.18 337.288,342.18 333,329.5C 328.511,316.193 323.344,303.193 317.5,290.5C 321.094,291.457 324.76,292.124 328.5,292.5C 330.965,292.522 333.298,292.022 335.5,291C 367.474,256.858 381.807,216.358 378.5,169.5 Z"/></g>
<g><path style="opacity:1" fill="#6d3d1d" d="M 312.5,301.5 C 319.126,315.874 324.293,330.874 328,346.5C 330.851,357.917 329.851,368.917 325,379.5C 319.725,383.358 318.225,388.358 320.5,394.5C 314.061,400.562 306.727,405.396 298.5,409C 230.374,434.741 162.707,433.408 95.5,405C 80.3285,398.762 67.3285,389.595 56.5,377.5C 62.5013,381.167 68.8346,384.334 75.5,387C 150.053,405.068 218.387,391.735 280.5,347C 288.255,339.302 295.422,331.135 302,322.5C 306.595,315.977 310.095,308.977 312.5,301.5 Z"/></g>
</svg>
